<svg id="Layer_1" data-name="Layer 1" xmlns="http://www.w3.org/2000/svg" xmlns:xlink="http://www.w3.org/1999/xlink" viewBox="0 0 542 108"><defs><style>.cls-1{fill:none;}.cls-2{clip-path:url(#clip-path);}.cls-3{fill:#fff;}.cls-4{opacity:0.04;}.cls-10,.cls-5,.cls-9{fill:#2b478e;}.cls-6{opacity:0.06;}.cls-7{fill:#380f3b;}.cls-8{fill:#ffd123;}.cls-9{opacity:0.09;}.cls-10,.cls-9{isolation:isolate;}.cls-10{opacity:0.11;}</style><clipPath id="clip-path"><path class="cls-1" d="M268,45a82.46,82.46,0,0,0-.9-12.2C265.3,20.5,258,12.1,246.6,10c-12.5-2.4-24-.5-33.5,8.9-1.5,1.5-3.1,3-5.1,4.8C202.3,12.3,192.5,9,180.9,9.1s-21,4.9-29.3,14.8V8.7c-9.2,0-17.9-.1-26.7,0a35,35,0,0,0-24,9.2c-1.9,1.8-3.9,3.5-5.8,5.3C79.5,4.1,62.6,4,38.4,22.8V9.1H7.6V97.9H40.1c.1-.2.1-.4.2-.6V46.7A12.18,12.18,0,0,1,52.5,34.5h0A12.18,12.18,0,0,1,64.7,46.7V97.6H97.4V46.7a12.18,12.18,0,0,1,12.2-12.2h0a12.18,12.18,0,0,1,12.2,12.2v51h32.1V46.6a12.18,12.18,0,0,1,12.2-12.2h0a12.18,12.18,0,0,1,12.2,12.2v51h32.1v-51a12.18,12.18,0,0,1,12.2-12.2h0a12.18,12.18,0,0,1,12.2,12.2V97.7h33V92.9C268,77,268.1,61,268,45Z"/></clipPath></defs><title>C_LOGO-01</title><g class="cls-2"><rect class="cls-3" x="-59" y="-33" width="430" height="209"/></g><g class="cls-2"><g class="cls-4"><polygon class="cls-5" points="408.4 60.2 408.4 26.5 403 26.6 403 28.8 398.8 28.8 398.8 20.3 393.6 20.3 393.6 16 375.5 16 375.5 20.3 370.3 20.3 370.3 51.3 360.9 51.5 360.9 45.4 358.6 45.4 358.6 43.1 353.1 42.9 353.1 38.7 347.1 39.4 347.1 36.1 335 37.4 335 13.7 327.7 13.7 327.7 10.4 315.7 8.4 315.7 13.7 308.5 13.7 308.5 48.5 300.9 48.5 300.3 51.1 297.5 51.1 297.5 49.3 283.1 48.9 283.1 51.1 280.3 51.1 280.3 41.7 274.8 41.7 274.8 41 272 41 272 39.3 266.6 39.1 266.6 36.4 262.5 36.4 262.5 33.8 245.4 34.2 245.4 27.7 218.9 27.7 218.9 37.1 212 37.2 200.6 35.8 200.6 38.5 196.5 37.9 196.5 48.2 184.9 48.2 184.9 26.5 181.4 26.5 181.4 23.1 169.2 23.1 169.2 26.5 166.2 26.5 166.2 21.7 162.6 21.7 162.6 18.3 144.7 18.9 144.7 21.7 141.1 21.7 141.1 38.5 140.2 38.5 140.2 33.3 137.4 33.3 137.4 31.6 134.3 31.5 134.3 21.7 130.8 21.7 130.8 18.3 112.8 18.9 112.8 21.7 109.3 21.7 109.3 36.4 104.4 35.9 104.4 44.6 99.7 44.6 99.7 42.7 93.4 40.7 86 40.7 86 60.2 408.4 60.2"/></g></g><g class="cls-2"><g class="cls-6"><polygon class="cls-5" points="457.2 91.2 457.2 37.5 448.4 37.7 448.4 41.1 441.8 41.1 441.8 27.6 433.6 27.6 433.6 20.8 404.7 20.8 404.7 27.6 396.5 27.6 396.5 77 381.5 77.3 381.5 67.6 377.7 67.6 377.7 64 369 63.6 369 57 359.4 58 359.4 52.7 340.1 54.8 340.1 17.2 328.6 17.2 328.6 11.8 309.5 8.6 309.5 17.2 297.9 17.2 297.9 72.6 285.8 72.6 285 76.6 280.5 76.6 280.5 73.8 257.6 73.2 257.6 76.6 253.1 76.6 253.1 61.7 244.3 61.7 244.3 60.6 239.8 60.6 239.8 57.9 231.2 57.6 231.2 53.3 224.6 53.3 224.6 49.1 197.4 49.7 197.4 39.4 155.2 39.4 155.2 54.4 144.2 54.6 126 52.2 126 56.5 119.5 55.7 119.5 72.1 101 72.1 101 37.5 95.5 37.5 95.5 32 76 32 76 37.5 71.2 37.5 71.2 29.9 65.6 29.9 65.6 24.5 36.9 25.4 36.9 29.9 31.3 29.9 31.3 56.6 29.8 56.6 29.8 48.4 25.3 48.4 25.3 45.6 20.4 45.5 20.4 29.9 14.8 29.9 14.8 24.5 -13.9 25.4 -13.9 29.9 -19.5 29.9 -19.5 53.3 -27.2 52.5 -27.2 66.3 -34.7 66.3 -34.7 63.2 -44.8 60.2 -56.5 60.2 -56.5 91.2 457.2 91.2"/></g></g><g class="cls-2"><path class="cls-7" d="M279.6,81.8a60.59,60.59,0,0,1-4.9-18.4,44.34,44.34,0,0,1,1.5-17.2,38.26,38.26,0,0,1,11.1-17.4l.4.5c-11.9,11-13.3,24.6-12.4,34.1a56.19,56.19,0,0,0,4.9,18.2Z"/><rect class="cls-7" x="282.5" y="36.2" width="11.4" height="5"/><rect class="cls-7" x="283.7" y="33.2" width="8.5" height="3.2"/><rect class="cls-7" x="287.3" y="25.1" width="1.5" height="9"/><rect class="cls-7" x="287.9" y="15" width="0.2" height="10.3"/><path class="cls-7" d="M293.9,18.7c-1.9-2.3-3.8,2.3-5.7,0V15c1.9,2.3,3.8-2.3,5.7,0Z"/><rect class="cls-7" x="286.6" y="37.3" width="2.8" height="44.3"/><rect class="cls-7" x="277.3" y="73.8" width="9.7" height="0.6"/><rect class="cls-7" x="275.4" y="66.6" width="11.6" height="0.6"/><rect class="cls-7" x="275" y="58.6" width="12" height="0.6"/><rect class="cls-7" x="275" y="51.7" width="12" height="0.6"/><rect class="cls-7" x="277.2" y="44.4" width="12" height="0.6"/><rect class="cls-7" x="280.2" y="37.9" width="12" height="0.6"/><rect class="cls-7" x="288.8" y="42" width="3.4" height="0.5"/><rect class="cls-7" x="288.8" y="43" width="3.4" height="0.5"/><rect class="cls-7" x="288.8" y="44" width="3.4" height="0.5"/><rect class="cls-7" x="288.8" y="45" width="3.4" height="0.5"/><rect class="cls-7" x="288.8" y="45.9" width="3.4" height="0.5"/><rect class="cls-7" x="288.8" y="46.9" width="3.4" height="0.5"/><rect class="cls-7" x="288.8" y="47.9" width="3.4" height="0.5"/><rect class="cls-7" x="288.8" y="48.9" width="3.4" height="0.5"/><rect class="cls-7" x="288.8" y="49.9" width="3.4" height="0.5"/><rect class="cls-7" x="288.8" y="50.9" width="3.4" height="0.5"/><rect class="cls-7" x="288.8" y="51.9" width="3.4" height="0.5"/><rect class="cls-7" x="288.8" y="52.9" width="3.4" height="0.5"/><rect class="cls-7" x="288.8" y="53.8" width="3.4" height="0.5"/><rect class="cls-7" x="288.8" y="54.8" width="3.4" height="0.5"/><rect class="cls-7" x="288.8" y="55.8" width="3.4" height="0.5"/><rect class="cls-7" x="288.8" y="56.8" width="3.4" height="0.5"/><rect class="cls-7" x="288.8" y="57.8" width="3.4" height="0.5"/><rect class="cls-7" x="288.8" y="58.8" width="3.4" height="0.5"/><rect class="cls-7" x="288.8" y="59.8" width="3.4" height="0.5"/><rect class="cls-7" x="288.8" y="60.7" width="3.4" height="0.5"/><rect class="cls-7" x="288.8" y="61.7" width="3.4" height="0.5"/><rect class="cls-7" x="288.8" y="62.7" width="3.4" height="0.5"/><rect class="cls-7" x="288.8" y="63.7" width="3.4" height="0.5"/><rect class="cls-7" x="288.8" y="64.7" width="3.4" height="0.5"/><rect class="cls-7" x="288.8" y="65.7" width="3.4" height="0.5"/><rect class="cls-7" x="288.8" y="66.7" width="3.4" height="0.5"/><rect class="cls-7" x="288.8" y="67.7" width="3.4" height="0.5"/><rect class="cls-7" x="288.8" y="68.6" width="3.4" height="0.5"/><rect class="cls-7" x="288.8" y="69.6" width="3.4" height="0.5"/><rect class="cls-7" x="288.8" y="70.6" width="3.4" height="0.5"/><rect class="cls-7" x="288.8" y="71.6" width="3.4" height="0.5"/><rect class="cls-7" x="288.8" y="72.6" width="3.4" height="0.5"/><rect class="cls-7" x="288.8" y="73.6" width="3.4" height="0.5"/><rect class="cls-7" x="288.8" y="74.6" width="3.4" height="0.5"/><rect class="cls-7" x="288.8" y="75.5" width="3.4" height="0.5"/><rect class="cls-7" x="288.8" y="76.5" width="3.4" height="0.5"/><rect class="cls-7" x="288.8" y="77.5" width="3.4" height="0.5"/><rect class="cls-7" x="288.8" y="78.5" width="3.4" height="0.5"/><rect class="cls-7" x="288.8" y="79.5" width="3.4" height="0.5"/><rect class="cls-7" x="288.8" y="80.5" width="3.4" height="0.5"/><rect class="cls-7" x="288.8" y="81.5" width="3.4" height="0.5"/><rect class="cls-7" x="292.2" y="41.2" width="14.8" height="40.8"/><rect class="cls-7" x="278.52" y="77.89" width="9.8" height="0.4" transform="translate(19.15 206.87) rotate(-41.38)"/><rect class="cls-7" x="281.79" y="72.04" width="0.4" height="11.7" transform="translate(48.61 254.29) rotate(-52.53)"/><rect class="cls-7" x="280.86" y="63.9" width="0.4" height="13.1" transform="translate(76.42 275.58) rotate(-59.14)"/><rect class="cls-7" x="276.09" y="70.41" width="12.1" height="0.4" transform="translate(5.51 160.43) rotate(-32.04)"/><polygon class="cls-7" points="286.6 66.8 274.8 59.4 275 59.1 286.8 66.5 286.6 66.8"/><rect class="cls-7" x="274.41" y="62.68" width="13.7" height="0.4" transform="translate(9.07 157.6) rotate(-31.79)"/><polygon class="cls-7" points="286.8 58.9 275.3 52.3 275.5 52 287 58.6 286.8 58.9"/><polygon class="cls-7" points="275 58.9 274.8 58.6 286.4 52 277.1 45.1 277.3 44.8 287.1 52.1 275 58.9"/><rect class="cls-7" x="274.49" y="48.2" width="13.2" height="0.4" transform="translate(16.22 154.22) rotate(-31.55)"/><rect class="cls-7" x="276.38" y="41.36" width="11.2" height="0.4" transform="translate(19.27 152.11) rotate(-31.21)"/><rect class="cls-7" x="283.22" y="37.06" width="0.4" height="8.8" transform="translate(58.72 219.09) rotate(-46.65)"/></g><g class="cls-2"><rect class="cls-8" x="-28.8" y="86.9" width="344.7" height="13.4"/></g><g class="cls-2"><path class="cls-8" d="M82.7,96.6V52.2a3.33,3.33,0,0,0-3.3-3.3,3.42,3.42,0,0,0-3.3,3.3V96.6H66.8L72,33.2H86.7L92,96.6Z"/><path class="cls-8" d="M77.9,34.9V27.2L74.5,27v.3H73.3l-.4-1.4a3.63,3.63,0,0,1-1.1-.3c-.3-.2-.9-.6-.7-.7s1.2.2,1.2,0-.6-.2-.5-.3.8,0,.9,0,.8.2.8.2l3-.3,1.2-.5.3-.3.5-.5s-.1-2.5.8-2.4,1,.6,1.1,1.1,0,1,.2,1.2a5.55,5.55,0,0,0,.6.8c0,.2.6.1,1.3.4a9.47,9.47,0,0,0,3.3.3c.5-.1.5.2.5.2a1.85,1.85,0,0,1,1-.2c.3,0,.1.2,0,.2s-.4.1-.3.1,1.2-.1,1.2.1-.5.9-.8.9-1.3-.1-1.3-.1,0,1.4-.2,1.5-3.9,0-3.9,0V35Z"/></g><g class="cls-2"><rect class="cls-8" x="87.7" y="69.7" width="86.3" height="17.2"/></g><g class="cls-2"><polyline class="cls-8" points="4.7 77.6 5.1 77.5 85.6 65.8 85.6 64.9 4.7 72.6"/><rect class="cls-8" x="22.7" y="39.6" width="1.5" height="49.7"/><rect class="cls-8" x="29.1" y="39.6" width="1.5" height="49.7"/><rect class="cls-8" x="72.2" y="52.5" width="0.7" height="22.5"/><rect class="cls-8" x="75.1" y="52.5" width="0.7" height="22.5"/><path class="cls-8" d="M4.7,52.3l-.1-.1c.1-.1,14.3-7.7,17.9-12.6l.1.1C19.1,44.6,4.9,52.2,4.7,52.3Z"/><path class="cls-8" d="M4.8,53.9l-.1-.1c.1-.1,14.8-8.5,18.1-12.9l.1.1C19.6,45.4,4.9,53.9,4.8,53.9Z"/><path class="cls-8" d="M4.7,57.9l-.1-.1c.2-.1,16.7-9.1,18.5-11.9h0l7.1-5.8.1.1-7,5.8C21.5,48.8,5.4,57.5,4.7,57.9Z"/><path class="cls-8" d="M4.7,56.2V56c.2-.1,16.4-8.9,18.7-11.6h0l6.9-4.9.1.1-6.9,4.9C21.1,47.3,5.4,55.8,4.7,56.2Z"/><path class="cls-8" d="M59.9,67.2c-3.1,0-8.9-4.4-17.1-13.2-6.5-6.9-12.1-14-12.2-14.1l.1-.1c.2.3,22.6,28.4,29.6,27.2s15-14.5,15-14.6l.1.1c-.1.1-8,13.4-15.1,14.7Z"/><path class="cls-8" d="M59.6,67.4c-4,0-10-4.3-17.9-12.9A166.88,166.88,0,0,1,30.6,41l.1-.1A161.26,161.26,0,0,0,41.9,54.4C50,63.2,56.3,67.6,60.1,67.2,65,66.7,68.9,63,71.3,60a32.8,32.8,0,0,0,4.1-6.6l.1.1a36.2,36.2,0,0,1-4.1,6.6c-2.4,3.1-6.3,6.8-11.3,7.3Z"/><path class="cls-8" d="M57.3,67.7h-.2c-4.2-.1-11-4.8-20.3-14.1-6.9-6.9-12.6-13.9-12.7-14l.1-.1c.1.1,5.8,7,12.7,14,9.1,9.1,16.1,14,20.2,14h.1c5.1,0,8.8-4.1,11.1-7.5A34.38,34.38,0,0,0,72,52.4h.1a39.93,39.93,0,0,1-3.7,7.7C66.2,63.6,62.5,67.7,57.3,67.7Z"/><path class="cls-8" d="M57.2,67.7c-4.6,0-11.5-4.4-20.8-13.2A181.7,181.7,0,0,1,23.3,40.6l.1-.1A181.7,181.7,0,0,0,36.5,54.4c9.4,9,16.8,13.5,21.2,13.1,5.7-.5,9.4-4.5,11.5-7.7a34,34,0,0,0,3.2-7h.1a26.14,26.14,0,0,1-3.2,7c-2.1,3.3-5.8,7.3-11.6,7.8A.75.75,0,0,1,57.2,67.7Z"/><rect class="cls-8" x="21.91" y="45.4" width="9.7" height="0.6" transform="translate(-25.49 37.04) rotate(-50.24)"/><rect class="cls-8" x="26.32" y="40.11" width="0.6" height="9.4" transform="translate(-22.29 26.81) rotate(-39.08)"/><rect class="cls-8" x="21.91" y="52.9" width="9.7" height="0.6" transform="translate(-31.26 39.79) rotate(-50.28)"/><rect class="cls-8" x="26.33" y="47.61" width="0.6" height="9.4" transform="translate(-27.02 28.49) rotate(-39.08)"/><rect class="cls-8" x="21.92" y="60.4" width="9.7" height="0.6" transform="translate(-37.01 42.45) rotate(-50.23)"/><rect class="cls-8" x="26.27" y="55.03" width="0.6" height="9.4" transform="translate(-31.71 30.12) rotate(-39.08)"/><path class="cls-8" d="M87.4,64.5c-5.4,0-11.3-9.5-12.2-11l-2.3,2.7-.3-.2,2.5-3.1.1.2c.1.1,6.9,11.7,12.5,11.1v.3Z"/><rect class="cls-8" x="73.77" y="52.39" width="0.3" height="3.7" transform="translate(-17.65 58.75) rotate(-39.09)"/><rect class="cls-8" x="72.05" y="57.78" width="3.8" height="0.3" transform="translate(-17.9 77.63) rotate(-50.18)"/><rect class="cls-8" x="73.89" y="55.77" width="0.3" height="4" transform="translate(-19.87 58.24) rotate(-38.25)"/><rect class="cls-8" x="72.08" y="61.17" width="3.8" height="0.3" transform="translate(-20.47 79.02) rotate(-50.27)"/><polygon class="cls-8" points="75.2 62.8 72.6 59.7 72.9 59.5 75.4 62.6 75.2 62.8"/><rect class="cls-8" x="72.11" y="68.06" width="3.8" height="0.3" transform="translate(-25.78 81.35) rotate(-50.16)"/><rect class="cls-8" x="73.88" y="65.97" width="0.3" height="3.9" transform="translate(-26.3 62.71) rotate(-39.56)"/><rect class="cls-8" x="72.12" y="71.25" width="3.8" height="0.3" transform="matrix(0.64, -0.77, 0.77, 0.64, -28.22, 82.52)"/><polygon class="cls-8" points="75.3 72.9 72.6 69.7 72.9 69.5 75.5 72.8 75.3 72.9"/><rect class="cls-8" x="21.9" y="76.41" width="9.7" height="0.6" transform="translate(-49.33 48.21) rotate(-50.24)"/><rect class="cls-8" x="26.32" y="71.12" width="0.6" height="9.4" transform="translate(-41.84 33.74) rotate(-39.08)"/><rect class="cls-8" x="21.9" y="83.71" width="9.7" height="0.6" transform="translate(-54.99 50.96) rotate(-50.33)"/><rect class="cls-8" x="26.32" y="78.41" width="0.6" height="9.4" transform="translate(-46.44 35.38) rotate(-39.09)"/><path class="cls-8" d="M87.3,64.4C83.2,64.4,76,53,75.7,52.5l.1-.1c.1.1,7.4,11.8,11.4,11.8h.1v.1C87.4,64.4,87.3,64.4,87.3,64.4Z"/><rect class="cls-8" x="7.4" y="50.7" width="0.1" height="21.7"/><rect class="cls-8" x="10.7" y="48.6" width="0.1" height="23.7"/><rect class="cls-8" x="14.8" y="45.9" width="0.1" height="26.4"/><rect class="cls-8" x="19.1" y="42.8" width="0.1" height="29.6"/><rect class="cls-8" x="34.4" y="44.5" width="0.1" height="27.9"/><rect class="cls-8" x="38.1" y="49" width="0.1" height="23.4"/><rect class="cls-8" x="42" y="53.2" width="0.1" height="17.2"/><rect class="cls-8" x="44.8" y="55.9" width="0.1" height="14.5"/><rect class="cls-8" x="47.9" y="59.4" width="0.1" height="11"/></g><g class="cls-2"><path class="cls-8" d="M214.6,93.1V50.2H214a2.75,2.75,0,0,0-.9-.8c-.3,0-.5.3-.6,0a10.55,10.55,0,0,0-.8-1.3h-.2l.5-.7h0a1.69,1.69,0,0,1-.5.2l-1.8-.8s0-.7-.2-.9-.7.5-.7.6-.7.3-.8.5-.1-1.4-.1-1.7V36.4h-2v-.9h-5.7l-.1-.1a.65.65,0,0,0,.5-.3c.1-.3-.1-.2-.3-.7a1.26,1.26,0,0,1-.1-.8c-.1-.1-.3-.2-.2-.3s.2-.2.1-.4a5,5,0,0,1-.3-1.2c-.1-.5-.3-.3-.4-.5s-.2-.4-.3-.9-.6-.3-.6-.3,0-.7-.4-.8-.4.6-.4.7-.2.4-.7.8-.4-.4-.5-.8a1.06,1.06,0,0,0-.4-.6c-.3-.3-.4-1.7.1-1.5s2,.5,1.9.1-.5-.1-1-.1-1.5-1-1.6-1.4-.7-.4-.8-.5,0-.4.2-.8-.1-.4-.5-.7-.6.5-.5.8.5.7,0,.6-.8.5-1.1.9-1,.9-1.6.6-1,.3-.8.5,2.1-.4,2.1-.4a1.45,1.45,0,0,0,.6.1c.5.1,0,.4.1,1.1s-.2.1-.4.3-.4.5-.5.7c.1-.2-.3-.8-.3-.8s-.4,1.2-.8,1.3-.2-.6-.2-1a.57.57,0,0,0-.7-.5c-.2,0-.5.1-.3.7a1,1,0,0,1-.2,1.1c-.1,0-.6-1-.8-1.1s.1,1,.2,1.5-.2.4-.4.7-1.5,1-1.6,1.2.8.8.9,1.2-.3.8-.5,1l-.1.1h-5.6v.9h-2v8.9a8.12,8.12,0,0,1-.1,1.7c-.1-.2-.7-.3-.8-.5s-.5-.8-.7-.6-.2.9-.2.9l-1.8.8a1.69,1.69,0,0,1-.5-.2h0l.5.7h-.2a10.55,10.55,0,0,0-.8,1.3c-.1.3-.4,0-.6,0s-.6.5-.9.8H134.5v17a2.29,2.29,0,0,1,2.1,2.3v6.7H138V69a2.4,2.4,0,0,1,2.3-2.3,2.26,2.26,0,0,1,2.3,2.3v6.7H144V69a2.4,2.4,0,0,1,2.3-2.3,2.26,2.26,0,0,1,2.3,2.3v6.7H150V69a2.4,2.4,0,0,1,2.3-2.3,2.26,2.26,0,0,1,2.3,2.3v6.7H156V69a2.4,2.4,0,0,1,2.3-2.3,2.26,2.26,0,0,1,2.3,2.3v6.7H162V69a2.4,2.4,0,0,1,2.3-2.3,2.26,2.26,0,0,1,2.3,2.3v6.7H168V69a2.4,2.4,0,0,1,2.3-2.3,2.26,2.26,0,0,1,2.3,2.3v6.7h2.5V69a2.4,2.4,0,0,1,2.3-2.3,2.26,2.26,0,0,1,2.3,2.3V92h9.5V52.4a5.34,5.34,0,0,1,5.3-5.3,5.2,5.2,0,0,1,5.2,4.6v.1a2.77,2.77,0,0,1,.1.9V93h9.5V69.5a2.26,2.26,0,0,1,2.3-2.3,2.4,2.4,0,0,1,2.3,2.3V93.1Z"/></g><g class="cls-2"><path class="cls-8" d="M177.3,70.3V66.8l1.9-3.3.4-.4-.2-.2,1-1s.1-1.1,0-1.1H180V55.7s.4,0,.3-.3-.6-.2-.6-.2.1-1.6-1.2-2,0-.2,0-.2v-.5l-.6-1.1a1.89,1.89,0,0,0,.4-.6c0-.3-.4-.5-.4-.5s.1-1-.3-.9-.2.9-.2.9-.6.3-.6.4.5.6.5.6l-.9,1.2h-.2l.1-.3.2-.1-.8-1.2v-.4a.7.7,0,0,0,.2-.4c0-.2-.3-.3-.3-.3s.1-1-.1-1-.5.9-.5.9-.3.1-.2.3a2,2,0,0,0,.2.6l-.2.5-.7.9.3.4s-1.8.5-1.9,1.6v.6h-.3V55l.4-.1-.3,1.9-8.1-.8.1-1.3s.2-.3.1-.5a.2.2,0,0,0-.2-.2,2.4,2.4,0,0,0-1.2-2.1,7.75,7.75,0,0,0-.9-1.8v-.5a.39.39,0,0,0,.4-.4c0-.4-.4-.2-.4-.2s.2-1.3-.2-1.2-.4,1.1-.4,1.1-.5,0-.5.4.4.3.4.3v.5l-.9,1.4v.4a2.29,2.29,0,0,0-1.4,2.2s-.3,0-.4.2.3.3.3.3v3.1h-1.2V56.3h-2.4v1.4h-1.2V56.2a3.38,3.38,0,0,0-1.2-2.4v-.5l-.8-.8v-.3s.4-.3.3-.4a1.44,1.44,0,0,0-.3-.2s0-.4-.3-.4-.3.5-.3.5-.3,0-.3.1.2.2.2.2l-.1.4-.8.9v.3a2.93,2.93,0,0,0-1.3,2.2h-.7V52.1l1.1-1.5h-.3V45.3h.3l-1.7-2v-5l1.5-1.4V33.4h-.9V35H148V33.4h-1.4V28l.6-.8-.3-.2V23.4s.3-.3.2-.4a.31.31,0,0,0-.2-.1s-.2-1.2-1-1.4V21h.1v-.4s.3-.1.2-.1-.4-.1-.4-.1.1-1.1-.1-1-.3,1-.3,1a.31.31,0,0,0-.2.1l.1.2v.5l-.1.1v.3a1.77,1.77,0,0,0-.9,1.3h-.2l-1.2-1.1s.3-.2.2-.3l-.2-.2v-.4s.3-.1.2-.1a.31.31,0,0,0-.2-.1s.1-.9-.2-.8-.4,0-.4.8v.1l-.1.1c0,.1.2.2.2.2v.4a.25.25,0,0,0,0,.4l-1.6,1.3v1.7h-.9v-.8h.2l-.4-1-.6.9h.2v.8h-.6v-1h.2l-.5-1-.6,1h.2v.9h-1v-1l.3-.1-.4-.8-.4.8h.2v.9h-1.1v-.9l.3-.1-.6-1-.6,1h.3v.8h-.9l.1-2.7.2-.1a15.37,15.37,0,0,0-1.3-1.7l.1-.2-.2-.2v-.2s.3,0,.2-.2.1-.3-.1-.2h-.2l.1-.9h-.4l-.1.8a.1.1,0,0,0-.1.1l.1.3.1.4a.31.31,0,0,0-.2.1v.2s-.9.6-1,1.3a7.36,7.36,0,0,0,0,1.6l-.5-.5-.5.5-.6-.4-.4.6-.6-.4-.4.6-.6-.3-.4.6L127,23l-.5.5-.6-.4-.4.4-.5-.3-.4.5h-.3V23s.2-.2.1-.3a1.44,1.44,0,0,0-.3-.2,1.93,1.93,0,0,0-1-1.5l-.2-.1v-.3s.3.1.3-.1,0-.2-.1-.2h-.2s0-1-.1-1h-.2l-.2,1h-.1v.2h.1l-.1.3a2,2,0,0,0-1.2,1.8H121s0,.3.1.3,0,3.9,0,3.9l-.2.1-.1.3.6.8v5.5h-1.9v.3h.2v1.5h-.4V33.7H118V34h.3l.1,1.3v1.8l1.1,1.3-.1,3.5v8.7a2.43,2.43,0,0,0-1.1,1.8v5.5l.2,3.4-.3-.3h-6.8v9.1Z"/></g><g class="cls-2"><path class="cls-8" d="M260.1,75.5a50.55,50.55,0,0,0,4.3-16.1,39.54,39.54,0,0,0-1.3-15.1A34.79,34.79,0,0,0,253.4,29l-.4.4c10.4,9.7,11.7,21.6,10.9,29.9a49.34,49.34,0,0,1-4.3,15.9Z"/><rect class="cls-8" x="247.6" y="35.6" width="10" height="4.4"/><rect class="cls-8" x="249.1" y="33" width="7.5" height="2.8"/><rect class="cls-8" x="252" y="25.9" width="1.3" height="7.9"/><rect class="cls-8" x="252.6" y="17" width="0.2" height="9"/><path class="cls-8" d="M247.6,20.2c1.7-2.1,3.3,2.1,5,0V17c-1.7,2.1-3.3-2.1-5,0Z"/><rect class="cls-8" x="251.6" y="36.6" width="2.4" height="38.9"/><rect class="cls-8" x="253.6" y="68.5" width="8.5" height="0.5"/><rect class="cls-8" x="253.6" y="62.2" width="10.2" height="0.5"/><rect class="cls-8" x="253.6" y="55.2" width="10.6" height="0.5"/><rect class="cls-8" x="253.6" y="49.2" width="10.6" height="0.5"/><rect class="cls-8" x="251.7" y="42.8" width="10.6" height="0.5"/><rect class="cls-8" x="249.1" y="37.1" width="10.6" height="0.5"/><rect class="cls-8" x="249.1" y="40.7" width="3" height="0.5"/><rect class="cls-8" x="249.1" y="41.5" width="3" height="0.5"/><rect class="cls-8" x="249.1" y="42.4" width="3" height="0.5"/><rect class="cls-8" x="249.1" y="43.3" width="3" height="0.5"/><rect class="cls-8" x="249.1" y="44.1" width="3" height="0.5"/><rect class="cls-8" x="249.1" y="45" width="3" height="0.5"/><rect class="cls-8" x="249.1" y="45.9" width="3" height="0.5"/><rect class="cls-8" x="249.1" y="46.7" width="3" height="0.5"/><rect class="cls-8" x="249.1" y="47.6" width="3" height="0.5"/><rect class="cls-8" x="249.1" y="48.5" width="3" height="0.5"/><rect class="cls-8" x="249.1" y="49.3" width="3" height="0.5"/><rect class="cls-8" x="249.1" y="50.2" width="3" height="0.5"/><rect class="cls-8" x="249.1" y="51.1" width="3" height="0.5"/><rect class="cls-8" x="249.1" y="51.9" width="3" height="0.5"/><rect class="cls-8" x="249.1" y="52.8" width="3" height="0.5"/><rect class="cls-8" x="249.1" y="53.6" width="3" height="0.5"/><rect class="cls-8" x="249.1" y="54.5" width="3" height="0.5"/><rect class="cls-8" x="249.1" y="55.4" width="3" height="0.5"/><rect class="cls-8" x="249.1" y="56.2" width="3" height="0.5"/><rect class="cls-8" x="249.1" y="57.1" width="3" height="0.5"/><rect class="cls-8" x="249.1" y="58" width="3" height="0.5"/><rect class="cls-8" x="249.1" y="58.8" width="3" height="0.5"/><rect class="cls-8" x="249.1" y="59.7" width="3" height="0.5"/><rect class="cls-8" x="249.1" y="60.6" width="3" height="0.5"/><rect class="cls-8" x="249.1" y="61.4" width="3" height="0.5"/><rect class="cls-8" x="249.1" y="62.3" width="3" height="0.5"/><rect class="cls-8" x="249.1" y="63.2" width="3" height="0.5"/><rect class="cls-8" x="249.1" y="64" width="3" height="0.5"/><rect class="cls-8" x="249.1" y="64.9" width="3" height="0.5"/><rect class="cls-8" x="249.1" y="65.7" width="3" height="0.5"/><rect class="cls-8" x="249.1" y="66.6" width="3" height="0.5"/><rect class="cls-8" x="249.1" y="67.5" width="3" height="0.5"/><rect class="cls-8" x="249.1" y="68.3" width="3" height="0.5"/><rect class="cls-8" x="249.1" y="69.2" width="3" height="0.5"/><rect class="cls-8" x="249.1" y="70.1" width="3" height="0.5"/><rect class="cls-8" x="249.1" y="70.9" width="3" height="0.5"/><rect class="cls-8" x="249.1" y="71.8" width="3" height="0.5"/><rect class="cls-8" x="249.1" y="72.7" width="3" height="0.5"/><rect class="cls-8" x="249.1" y="73.5" width="3" height="0.5"/><rect class="cls-8" x="249.1" y="74.4" width="3" height="0.5"/><rect class="cls-8" x="249.1" y="75.3" width="3" height="0.5"/><rect class="cls-8" x="206.4" y="40" width="42.7" height="35.8"/><rect class="cls-8" x="256.63" y="68.02" width="0.3" height="8.6" transform="translate(32.76 217.17) rotate(-48.62)"/><rect class="cls-8" x="252.99" y="71.99" width="10.2" height="0.3" transform="translate(9.37 171.91) rotate(-37.47)"/><rect class="cls-8" x="253.1" y="65.49" width="11.5" height="0.3" transform="translate(2.98 142.06) rotate(-30.86)"/><rect class="cls-8" x="257.74" y="60.5" width="0.3" height="10.6" transform="translate(65.3 249.51) rotate(-57.96)"/><polygon class="cls-8" points="254 62.4 264.3 55.9 264.2 55.7 253.8 62.2 254 62.4"/><rect class="cls-8" x="258.55" y="53.02" width="0.3" height="12" transform="matrix(0.53, -0.85, 0.85, 0.53, 72.25, 247.82)"/><polygon class="cls-8" points="253.8 55.5 263.9 49.7 263.7 49.4 253.6 55.2 253.8 55.5"/><polygon class="cls-8" points="264.2 55.5 264.3 55.2 254.2 49.5 262.3 43.4 262.1 43.1 253.6 49.5 264.2 55.5"/><rect class="cls-8" x="258.68" y="40.47" width="0.3" height="11.6" transform="translate(83.98 242.64) rotate(-58.45)"/><rect class="cls-8" x="257.89" y="35.44" width="0.3" height="9.8" transform="translate(89.85 240.14) rotate(-58.79)"/><rect class="cls-8" x="253.02" y="40.06" width="7.7" height="0.3" transform="translate(42.48 187.31) rotate(-43.35)"/></g><g class="cls-2"><path class="cls-8" d="M103.8,80.1V65.7l-6.1.6-.3-2,.5.1v-.5h-.3v-.6c0-1.1-2-1.7-2-1.7l.4-.5-.7-1-.2-.5a4.17,4.17,0,0,0,.2-.6c0-.2-.3-.3-.3-.3s-.3-1-.5-1-.1,1-.1,1-.3.1-.3.3a.7.7,0,0,0,.2.4v.4l-.8,1.3.2.1.1.4h-.2l-1-1.3s.5-.5.5-.6-.6-.4-.6-.4.2-.9-.3-1-.3,1-.3,1-.4.3-.4.5.4.6.4.6l-.7,1.2v.5s1.3-.3,0,.2S90,64.4,90,64.4s-.5,0-.6.3.3.3.3.3v5.3h-.4c-.1,0,0,1.2,0,1.2l1,1-.2.2.4.4,2,3.5v3.7Z"/></g><g class="cls-2"><rect class="cls-8" x="116.6" y="59" width="39.5" height="14.4"/></g><g class="cls-2"><rect class="cls-8" x="232" y="68.4" width="39.3" height="22.3"/></g><g class="cls-2"><rect class="cls-8" x="186.7" y="39.5" width="25.4" height="53.9"/></g><g class="cls-2"><rect class="cls-8" x="171.9" y="59.6" width="16.9" height="31.7"/></g><g class="cls-2"><rect class="cls-8" x="73.6" y="45.9" width="13.7" height="43.3"/></g><g class="cls-2"><path class="cls-9" d="M292.4,143.1V41.7a7.62,7.62,0,0,0-4.4,6.8,5.7,5.7,0,0,0,.1,1.3l-.9.3c-2.5-2.8-7.6-2.8-11.7-.1s-5.8,7.6-3.4,10.6a4.71,4.71,0,0,0,1.5,1.3,21.64,21.64,0,0,0-2.3,9.7v.5h-.7c-4.2,0-7.7,3-8,6.8a25.12,25.12,0,0,0-2.7-.4,8.26,8.26,0,0,0-8.1-5.9c-4.6,0-8.3,3.4-8.3,7.7a9.85,9.85,0,0,0,.2,1.7,25.09,25.09,0,0,0-6.1,5.1,11,11,0,0,0-4.1-.7,11.9,11.9,0,0,0-8,3.1,14.82,14.82,0,0,0-8.9-2.9,14.21,14.21,0,0,0-4.2.6,12.09,12.09,0,0,0-.8-2.5,7.05,7.05,0,0,0,6.1-6.8c0-3.8-3.3-6.9-7.5-6.9a7.51,7.51,0,0,0-6.8,4,21.56,21.56,0,0,0-11.6-3.3c-10.8,0-19.6,7.5-20.8,17.1a15.48,15.48,0,0,0-2.2-.1,21.07,21.07,0,0,0-19.5,12.2,33.94,33.94,0,0,0-9.7-1.4,33.21,33.21,0,0,0-14.5,3.3,14.47,14.47,0,0,0-13.2-8,14.2,14.2,0,0,0-13.3,8.4,22.8,22.8,0,0,0-6-4.6,12.28,12.28,0,0,0,1.3-5.4c0-7.3-6.4-13.2-14.3-13.2a15,15,0,0,0-5.2.9,1.38,1.38,0,0,1-.3-.4,6.63,6.63,0,0,0,2.7-5.3c0-3.8-3.3-6.9-7.5-6.9a7.79,7.79,0,0,0-3.1.6,10.43,10.43,0,0,0-9.8-6.3,10.33,10.33,0,0,0-10.2,7.5c-1.2.1-2.3.3-3.4.5C42.4,65.8,38,62,32.6,62h-.9v-.6c0-12.8-8.9-23.7-21.3-27.6a8.6,8.6,0,0,0,.1-1.6,9.71,9.71,0,0,0-5.6-8.6V143.1H292.4Z"/></g><g class="cls-2"><path class="cls-10" d="M172.4,71.2h0v-2H150.8v2h-.7v2.1h.7V74h-2V72.4l-2.4-1h0V62.7a.85.85,0,0,0,.7-.8v-1a.77.77,0,0,0-.7-.8h0a8.63,8.63,0,0,0-4.5-7.4h.4a.32.32,0,0,0,.3-.3,3.41,3.41,0,0,0-2.4-2.7V47.5a.22.22,0,0,0,.2-.2V47a.22.22,0,0,0-.2-.2h0a2.33,2.33,0,0,0-1.3-2.1h.1a.1.1,0,0,0,.1-.1q-.15-.75-1.2-.9V42.5h-.3v1.2a1.32,1.32,0,0,0-1.2.9.1.1,0,0,0,.1.1h.1a2.53,2.53,0,0,0-1.3,2.1h0a.22.22,0,0,0-.2.2v.3a.22.22,0,0,0,.2.2v2.2a4,4,0,0,0-2.4,2.7.32.32,0,0,0,.3.3h.4a8.71,8.71,0,0,0-4.5,7.4h0a.85.85,0,0,0-.7.8v1a.77.77,0,0,0,.7.8v8.8l-2.4.9V74h-2v-.7h.7V71.2h-.7v-2H103.1v2h-.7v2.1h.7v28.1h69.2v-28h.7V71.3h-.6ZM115.2,81.9h-3.1V79.4a1.6,1.6,0,1,1,3.2,0v2.5Zm19.4-13.5h-3.1V65.9a1.6,1.6,0,0,1,3.2,0v2.5Zm4.8,0h-3.1V65.9a1.6,1.6,0,0,1,3.2,0v2.5Zm4.7,0H141V65.9a1.6,1.6,0,0,1,3.2,0v2.5Zm19.4,13.5h-3.1V79.4a1.6,1.6,0,0,1,3.2,0v2.5Z"/></g><g class="cls-2"><path class="cls-10" d="M215.6,83.7h-.1a20.83,20.83,0,0,0-10.7-17.8h.9a.56.56,0,0,0,.6-.7c-.3-2.8-2.5-5.2-5.7-6.5V53.4a.54.54,0,0,0,.5-.5v-.6a.47.47,0,0,0-.5-.5h0a5.77,5.77,0,0,0-3-5h.2a.22.22,0,0,0,.2-.2c-.1-1.1-1.3-2-2.8-2.1V41.7h-.8v2.8c-1.5.1-2.7,1-2.8,2.1a.22.22,0,0,0,.2.2h.2a5.65,5.65,0,0,0-3,5h0a.54.54,0,0,0-.5.5v.6a.47.47,0,0,0,.5.5v5.3c-3.2,1.3-5.4,3.7-5.7,6.5a.67.67,0,0,0,.6.7h.9a20.63,20.63,0,0,0-10.7,17.8H174a1.89,1.89,0,0,0-1.7,2V88a2.13,2.13,0,0,0,1.7,2v11.6h41.7V89.9a1.89,1.89,0,0,0,1.7-2V85.6A2,2,0,0,0,215.6,83.7Z"/></g><path class="cls-3" d="M295.16,95.41h6v.88h-7.09V84h1Z"/><path class="cls-3" d="M302.9,84.55a.67.67,0,0,1,.19-.48.66.66,0,0,1,.5-.2.67.67,0,0,1,.51.2.67.67,0,0,1,.19.48.65.65,0,0,1-.19.48.68.68,0,0,1-.51.19.65.65,0,0,1-.69-.67Zm1.19,11.73h-1v-9.1h1Z"/><path class="cls-3" d="M312.27,94a1.43,1.43,0,0,0-.6-1.2,4.64,4.64,0,0,0-1.81-.71,8.16,8.16,0,0,1-1.88-.59,2.51,2.51,0,0,1-1-.81,2,2,0,0,1-.32-1.16,2.16,2.16,0,0,1,.9-1.78,3.63,3.63,0,0,1,2.3-.7,3.75,3.75,0,0,1,2.44.75,2.42,2.42,0,0,1,.92,2h-1a1.63,1.63,0,0,0-.67-1.33,3,3,0,0,0-3.28-.09,1.36,1.36,0,0,0-.6,1.15,1.24,1.24,0,0,0,.5,1.06,5.31,5.31,0,0,0,1.83.69,8.58,8.58,0,0,1,2,.66,2.57,2.57,0,0,1,1,.85,2.34,2.34,0,0,1-.61,3,4,4,0,0,1-2.43.69,4.08,4.08,0,0,1-2.58-.77,2.37,2.37,0,0,1-1-1.95h1a1.75,1.75,0,0,0,.74,1.38,3,3,0,0,0,1.81.49,2.86,2.86,0,0,0,1.7-.46A1.39,1.39,0,0,0,312.27,94Z"/><path class="cls-3" d="M322.86,91.82a5.48,5.48,0,0,1-.94,3.38,3,3,0,0,1-2.53,1.25A3.27,3.27,0,0,1,316.51,95l0,1.25h-.94V83.36h1V88.5A3.16,3.16,0,0,1,319.37,87a3,3,0,0,1,2.55,1.23,5.55,5.55,0,0,1,.94,3.43Zm-1-.18a4.74,4.74,0,0,0-.7-2.78,2.28,2.28,0,0,0-2-1,2.77,2.77,0,0,0-1.64.48,2.89,2.89,0,0,0-1,1.39v4.1a2.7,2.7,0,0,0,2.67,1.72,2.26,2.26,0,0,0,1.95-1A5.07,5.07,0,0,0,321.85,91.65Z"/><path class="cls-3" d="M324.53,91.6a5.36,5.36,0,0,1,.51-2.36A3.82,3.82,0,0,1,328.58,87a3.75,3.75,0,0,1,2.94,1.27,4.91,4.91,0,0,1,1.13,3.38v.21a5.4,5.4,0,0,1-.51,2.38,3.8,3.8,0,0,1-1.43,1.63,3.93,3.93,0,0,1-2.11.57,3.75,3.75,0,0,1-2.94-1.27,4.9,4.9,0,0,1-1.13-3.38Zm1,.28a4.13,4.13,0,0,0,.85,2.68,2.86,2.86,0,0,0,4.42,0,4.27,4.27,0,0,0,.85-2.76V91.6a4.64,4.64,0,0,0-.39-1.91,3.11,3.11,0,0,0-1.08-1.34,2.77,2.77,0,0,0-1.6-.48,2.69,2.69,0,0,0-2.2,1.06,4.27,4.27,0,0,0-.85,2.76Z"/><path class="cls-3" d="M335.69,87.18l0,1.56A3.61,3.61,0,0,1,337,87.45a3.32,3.32,0,0,1,1.69-.44,2.73,2.73,0,0,1,2.18.82,3.72,3.72,0,0,1,.72,2.47v6h-1v-6a2.78,2.78,0,0,0-.52-1.82,2,2,0,0,0-1.63-.6,2.55,2.55,0,0,0-1.65.58A3.42,3.42,0,0,0,335.73,90v6.23h-1v-9.1Z"/><path class="cls-3" d="M344,98.57l-.6-.44a3.67,3.67,0,0,0,.79-2.13V94.7h1v1.05A3.62,3.62,0,0,1,344,98.57Z"/><path class="cls-3" d="M352.95,91.29v5h-1V84h4.17a4.4,4.4,0,0,1,3,1,3.83,3.83,0,0,1,0,5.34,4.52,4.52,0,0,1-3.08.94Zm0-.87h3.14a3.31,3.31,0,0,0,2.3-.72,2.56,2.56,0,0,0,.79-2,2.67,2.67,0,0,0-.79-2,3.16,3.16,0,0,0-2.23-.77h-3.2Z"/><path class="cls-3" d="M361.62,91.6a5.36,5.36,0,0,1,.51-2.36A3.82,3.82,0,0,1,365.68,87a3.75,3.75,0,0,1,2.94,1.27,4.91,4.91,0,0,1,1.13,3.38v.21a5.4,5.4,0,0,1-.51,2.38,3.8,3.8,0,0,1-1.43,1.63,3.93,3.93,0,0,1-2.11.57,3.75,3.75,0,0,1-2.94-1.27,4.9,4.9,0,0,1-1.13-3.38Zm1,.28a4.13,4.13,0,0,0,.85,2.68,2.86,2.86,0,0,0,4.42,0,4.27,4.27,0,0,0,.85-2.76V91.6a4.64,4.64,0,0,0-.39-1.91,3.11,3.11,0,0,0-1.08-1.34,2.77,2.77,0,0,0-1.6-.48,2.69,2.69,0,0,0-2.2,1.06,4.27,4.27,0,0,0-.85,2.76Z"/><path class="cls-3" d="M376,88a3.78,3.78,0,0,0-.68-.06,2.46,2.46,0,0,0-1.59.53,2.88,2.88,0,0,0-.93,1.53v6.25h-1v-9.1h1l0,1.45A2.68,2.68,0,0,1,375.39,87a1.65,1.65,0,0,1,.66.11Z"/><path class="cls-3" d="M379.6,84.85v2.33h1.88V88H379.6v6.07a1.9,1.9,0,0,0,.27,1.13,1.06,1.06,0,0,0,.91.37,6.16,6.16,0,0,0,.82-.08l0,.82a3.28,3.28,0,0,1-1.08.14,1.79,1.79,0,0,1-1.51-.6,2.83,2.83,0,0,1-.47-1.77V88h-1.67v-.82h1.67V84.85Z"/><path class="cls-3" d="M389.43,95.13a3.27,3.27,0,0,1-2.9,1.32,2.82,2.82,0,0,1-2.21-.85,3.7,3.7,0,0,1-.77-2.5V87.18h1V93q0,2.6,2.1,2.6a2.58,2.58,0,0,0,2.77-1.81V87.18h1v9.1h-1Z"/><path class="cls-3" d="M392.63,91.65a5.48,5.48,0,0,1,.95-3.38A3.05,3.05,0,0,1,396.15,87,3.17,3.17,0,0,1,399,88.49l.05-1.31H400V96.1a3.85,3.85,0,0,1-1,2.78,3.52,3.52,0,0,1-2.67,1,4.05,4.05,0,0,1-1.81-.42,3.51,3.51,0,0,1-1.36-1.13l.56-.61a3.19,3.19,0,0,0,2.54,1.31,2.58,2.58,0,0,0,2-.74,3,3,0,0,0,.73-2.07V95.1a3.25,3.25,0,0,1-2.82,1.35,3,3,0,0,1-2.54-1.26,5.5,5.5,0,0,1-1-3.41Zm1,.18a4.74,4.74,0,0,0,.7,2.75,2.26,2.26,0,0,0,2,1,2.69,2.69,0,0,0,2.63-1.67V89.68a2.87,2.87,0,0,0-1-1.33,2.74,2.74,0,0,0-1.6-.46,2.28,2.28,0,0,0-2,1A5.07,5.07,0,0,0,393.65,91.82Z"/><path class="cls-3" d="M408.33,96.28a4.71,4.71,0,0,1-.19-1.27,3.51,3.51,0,0,1-1.35,1.06,4.14,4.14,0,0,1-1.74.37,3.05,3.05,0,0,1-2.12-.73,2.38,2.38,0,0,1-.81-1.85,2.43,2.43,0,0,1,1.11-2.1,5.31,5.31,0,0,1,3.08-.77h1.83V90a2,2,0,0,0-.6-1.54,2.49,2.49,0,0,0-1.75-.56,2.74,2.74,0,0,0-1.74.54,1.6,1.6,0,0,0-.69,1.29h-1a2.34,2.34,0,0,1,1-1.88,3.89,3.89,0,0,1,2.48-.79,3.54,3.54,0,0,1,2.4.76,2.73,2.73,0,0,1,.9,2.12V94.2a5.35,5.35,0,0,0,.28,2v.1Zm-3.16-.72a3.38,3.38,0,0,0,1.8-.49,2.88,2.88,0,0,0,1.16-1.3v-2h-1.8a4.5,4.5,0,0,0-2.36.55,1.65,1.65,0,0,0-.85,1.47,1.62,1.62,0,0,0,.57,1.27A2.14,2.14,0,0,0,405.17,95.56Z"/><path class="cls-3" d="M412.94,96.28h-1V83.36h1Z"/><path class="cls-3" d="M420.9,98.55h-.85V84h.85Z"/><path class="cls-3" d="M432.38,96.28h-1v-11L428,86.48v-.94L432.21,84h.17Z"/><path class="cls-3" d="M444.63,91.18a6.77,6.77,0,0,1-1,3.93,3.6,3.6,0,0,1-5.58,0,6.52,6.52,0,0,1-1-3.83v-2.2a6.65,6.65,0,0,1,1-3.91,3.63,3.63,0,0,1,5.58,0,6.41,6.41,0,0,1,1,3.78Zm-1-2.2a6,6,0,0,0-.69-3.18,2.53,2.53,0,0,0-4.12,0,5.78,5.78,0,0,0-.71,3.1v2.41a6,6,0,0,0,.71,3.2,2.3,2.3,0,0,0,2.06,1.11,2.27,2.27,0,0,0,2-1.08,6,6,0,0,0,.7-3.18Z"/><path class="cls-3" d="M450.08,91.3h-4v-.85h4Z"/><path class="cls-3" d="M456.4,96.28h-1v-11l-3.33,1.24v-.94L456.23,84h.17Z"/><path class="cls-3" d="M467.45,92.34h1.91v.85h-1.91v3.1h-1v-3.1h-5.76v-.57L466.34,84h1.1Zm-5.54,0h4.53v-7l-.45.77Z"/><path class="cls-3" d="M484.44,90.82a7.09,7.09,0,0,1-.58,3,4.47,4.47,0,0,1-1.67,2,4.57,4.57,0,0,1-2.51.69,4.35,4.35,0,0,1-3.46-1.54,6.14,6.14,0,0,1-1.32-4.14V89.51a7,7,0,0,1,.59-3,4.41,4.41,0,0,1,4.18-2.68,4.58,4.58,0,0,1,2.49.68,4.47,4.47,0,0,1,1.67,1.93,7,7,0,0,1,.61,2.89Zm-1-1.33a5.41,5.41,0,0,0-1-3.46,3.6,3.6,0,0,0-5.46,0,5.46,5.46,0,0,0-1,3.51v1.28a5.41,5.41,0,0,0,1,3.45,3.6,3.6,0,0,0,5.48,0,5.56,5.56,0,0,0,1-3.5Z"/><path class="cls-3" d="M490.18,95.6a2.66,2.66,0,0,0,1.76-.59,2.09,2.09,0,0,0,.77-1.54h1a2.84,2.84,0,0,1-.52,1.52,3.26,3.26,0,0,1-1.27,1.07,3.84,3.84,0,0,1-1.7.39,3.51,3.51,0,0,1-2.84-1.25,5,5,0,0,1-1-3.35v-.3a5.7,5.7,0,0,1,.47-2.38,3.62,3.62,0,0,1,1.35-1.6,3.72,3.72,0,0,1,2.06-.56,3.51,3.51,0,0,1,2.47.89,3.25,3.25,0,0,1,1,2.35h-1a2.44,2.44,0,0,0-2.54-2.38,2.51,2.51,0,0,0-2.12,1,4.45,4.45,0,0,0-.75,2.76v.29a4.35,4.35,0,0,0,.75,2.72A2.53,2.53,0,0,0,490.18,95.6Z"/><path class="cls-3" d="M497.25,84.85v2.33h1.88V88h-1.88v6.07a1.9,1.9,0,0,0,.27,1.13,1.06,1.06,0,0,0,.91.37,6.16,6.16,0,0,0,.82-.08l0,.82a3.28,3.28,0,0,1-1.08.14,1.8,1.8,0,0,1-1.51-.6,2.83,2.83,0,0,1-.47-1.77V88h-1.67v-.82h1.67V84.85Z"/><path class="cls-3" d="M500.5,91.6a5.36,5.36,0,0,1,.51-2.36A3.82,3.82,0,0,1,504.55,87a3.75,3.75,0,0,1,2.94,1.27,4.92,4.92,0,0,1,1.13,3.38v.21a5.4,5.4,0,0,1-.51,2.38,3.79,3.79,0,0,1-1.43,1.63,3.93,3.93,0,0,1-2.11.57,3.75,3.75,0,0,1-2.94-1.27,4.9,4.9,0,0,1-1.13-3.38Zm1,.28a4.13,4.13,0,0,0,.84,2.68,2.86,2.86,0,0,0,4.42,0,4.27,4.27,0,0,0,.84-2.76V91.6a4.64,4.64,0,0,0-.39-1.91,3.11,3.11,0,0,0-1.08-1.34,2.77,2.77,0,0,0-1.6-.48,2.69,2.69,0,0,0-2.2,1.06,4.27,4.27,0,0,0-.85,2.76Z"/><path class="cls-3" d="M518,91.82a5.49,5.49,0,0,1-.94,3.38,3,3,0,0,1-2.53,1.25A3.27,3.27,0,0,1,511.68,95l0,1.25h-.94V83.36h1V88.5A3.16,3.16,0,0,1,514.54,87a3,3,0,0,1,2.55,1.23,5.55,5.55,0,0,1,.94,3.43Zm-1-.18a4.75,4.75,0,0,0-.7-2.78,2.28,2.28,0,0,0-2-1,2.77,2.77,0,0,0-1.64.48,2.89,2.89,0,0,0-1,1.39v4.1a2.7,2.7,0,0,0,2.67,1.72,2.26,2.26,0,0,0,1.95-1A5.07,5.07,0,0,0,517,91.65Z"/><path class="cls-3" d="M523.77,96.45a3.94,3.94,0,0,1-2.1-.57,3.89,3.89,0,0,1-1.46-1.59,5,5,0,0,1-.52-2.29v-.36a5.36,5.36,0,0,1,.51-2.36,4.06,4.06,0,0,1,1.42-1.65,3.5,3.5,0,0,1,2-.6,3.29,3.29,0,0,1,2.63,1.13,4.59,4.59,0,0,1,1,3.09v.56h-6.49V92a3.81,3.81,0,0,0,.89,2.58,2.82,2.82,0,0,0,2.23,1,3.28,3.28,0,0,0,1.43-.29,3.17,3.17,0,0,0,1.12-.94l.63.48A3.67,3.67,0,0,1,523.77,96.45Zm-.18-8.58a2.51,2.51,0,0,0-1.91.83,3.85,3.85,0,0,0-.95,2.24h5.46v-.11a3.34,3.34,0,0,0-.75-2.14A2.32,2.32,0,0,0,523.59,87.87Z"/><path class="cls-3" d="M533.35,88a3.77,3.77,0,0,0-.68-.06,2.47,2.47,0,0,0-1.59.53,2.88,2.88,0,0,0-.93,1.53v6.25h-1v-9.1h1l0,1.45A2.68,2.68,0,0,1,532.71,87a1.65,1.65,0,0,1,.66.11Z"/><rect class="cls-3" x="293.28" y="76.65" width="18.47" height="1"/><path class="cls-8" d="M304.43,32.17h-7.55l-1.32,4.27h-5.89l8.38-22.86h5.18l8.45,22.86h-5.92Zm-6.23-4.25h4.91L300.64,20Z"/><path class="cls-8" d="M331.51,28.7a8.34,8.34,0,0,1-1.29,4.21,7.76,7.76,0,0,1-3.3,2.83,11.25,11.25,0,0,1-4.86,1,9,9,0,0,1-7.1-2.94q-2.59-2.94-2.59-8.29V24.4a13.83,13.83,0,0,1,1.17-5.88,8.86,8.86,0,0,1,3.37-3.89A9.4,9.4,0,0,1,322,13.25a9.86,9.86,0,0,1,6.69,2.19,8.66,8.66,0,0,1,2.87,6h-5.5a4.09,4.09,0,0,0-1.05-3,4.33,4.33,0,0,0-3-.91,3.29,3.29,0,0,0-3,1.54A9.89,9.89,0,0,0,318,24v1.62a10.94,10.94,0,0,0,.92,5.23,3.36,3.36,0,0,0,3.16,1.57,4.23,4.23,0,0,0,2.9-.89A3.8,3.8,0,0,0,326,28.7Z"/><path class="cls-8" d="M341.35,13.58l5.1,15.9,5.09-15.9h7.25V36.44h-5.53V31.1l.53-10.93-5.53,16.27h-3.64l-5.54-16.28.53,10.94v5.34h-5.51V13.58Z"/><path class="cls-3" d="M296.46,45.67l7.7,18.65,7.7-18.65h4V68.53h-3.11v-8.9l.29-9.61-7.73,18.51H303l-7.71-18.46.31,9.56v8.9h-3.1V45.67Z"/><path class="cls-3" d="M331.7,66.85a6.45,6.45,0,0,1-5.13,2,5.53,5.53,0,0,1-4.26-1.58,6.69,6.69,0,0,1-1.48-4.67V51.54h3v11q0,3.86,3.23,3.86,3.43,0,4.56-2.48V51.54h3v17h-2.85Z"/><path class="cls-3" d="M342.4,68.53h-3V44.41h3Z"/><path class="cls-3" d="M351.25,47.43v4.11h3.27v2.25h-3.27V64.34a2.31,2.31,0,0,0,.44,1.53,1.87,1.87,0,0,0,1.49.51,7.5,7.5,0,0,0,1.42-.19v2.34a9,9,0,0,1-2.3.31,3.78,3.78,0,0,1-3-1.18,5,5,0,0,1-1-3.34V53.79h-3.19V51.54h3.19V47.43Z"/><path class="cls-3" d="M358,47a1.61,1.61,0,0,1,1.76-1.68,1.73,1.73,0,0,1,1.33.49,1.69,1.69,0,0,1,.45,1.19,1.63,1.63,0,0,1-.45,1.18,1.76,1.76,0,0,1-1.33.47,1.73,1.73,0,0,1-1.32-.47A1.64,1.64,0,0,1,358,47Zm3.23,21.49h-3v-17h3Z"/><path class="cls-3" d="M368.86,51.54l.08,1.88a6.55,6.55,0,0,1,5.19-2.2q3.67,0,5,2.73a6.56,6.56,0,0,1,2.27-2,6.86,6.86,0,0,1,3.31-.75q5.76,0,5.85,5.92V68.53h-3V57.32a3.17,3.17,0,0,0-3.74-3.63,4,4,0,0,0-2.77,1,3.87,3.87,0,0,0-1.28,2.6V68.53h-3V57.4q0-3.7-3.74-3.71a4,4,0,0,0-4,2.43v12.4h-3v-17Z"/><path class="cls-3" d="M402.33,68.84a7.76,7.76,0,0,1-5.79-2.27,8.28,8.28,0,0,1-2.23-6.07V60a10,10,0,0,1,1-4.51,7.61,7.61,0,0,1,2.78-3.11A7.15,7.15,0,0,1,402,51.23a6.65,6.65,0,0,1,5.3,2.18,9.26,9.26,0,0,1,1.89,6.25v1.21H397.3a5.93,5.93,0,0,0,1.51,4.06,4.82,4.82,0,0,0,3.68,1.55,5.33,5.33,0,0,0,2.68-.63,6.69,6.69,0,0,0,1.92-1.66l1.83,1.38A7.41,7.41,0,0,1,402.33,68.84ZM402,53.62a4,4,0,0,0-3,1.28,6.13,6.13,0,0,0-1.52,3.59h8.77v-.22a5.43,5.43,0,0,0-1.23-3.43A3.81,3.81,0,0,0,402,53.62Z"/><path class="cls-3" d="M411.89,59.9a9.75,9.75,0,0,1,1.91-6.29,6.62,6.62,0,0,1,9.86-.34V44.41h3V68.53h-2.75l-.15-1.82a6.17,6.17,0,0,1-5,2.14,6,6,0,0,1-5-2.42,9.86,9.86,0,0,1-1.92-6.31Zm3,.33a7.37,7.37,0,0,0,1.23,4.52,4,4,0,0,0,3.4,1.63,4.38,4.38,0,0,0,4.16-2.48V56.1a4.42,4.42,0,0,0-4.12-2.4,4,4,0,0,0-3.43,1.65A8.11,8.11,0,0,0,414.88,60.22Z"/><path class="cls-3" d="M431.31,47a1.61,1.61,0,0,1,1.76-1.68,1.72,1.72,0,0,1,1.33.49,1.69,1.69,0,0,1,.45,1.19,1.63,1.63,0,0,1-.45,1.18,1.75,1.75,0,0,1-1.33.47,1.72,1.72,0,0,1-1.32-.47A1.65,1.65,0,0,1,431.31,47Zm3.23,21.49h-3v-17h3Z"/><path class="cls-3" d="M450.14,68.53a6,6,0,0,1-.42-1.79,6.77,6.77,0,0,1-5,2.1,6.29,6.29,0,0,1-4.25-1.42,4.54,4.54,0,0,1-1.66-3.6,4.76,4.76,0,0,1,2.08-4.12,10,10,0,0,1,5.85-1.47h2.91V56.9a3.21,3.21,0,0,0-.94-2.43,3.84,3.84,0,0,0-2.77-.9,4.46,4.46,0,0,0-2.68.79,2.3,2.3,0,0,0-1.08,1.9h-3a3.94,3.94,0,0,1,.93-2.46,6.32,6.32,0,0,1,2.52-1.88,8.71,8.71,0,0,1,3.5-.69,7.05,7.05,0,0,1,4.74,1.47,5.23,5.23,0,0,1,1.78,4v7.82a9.3,9.3,0,0,0,.61,3.72v.25Zm-5-2.21a5.38,5.38,0,0,0,2.67-.71,4.33,4.33,0,0,0,1.83-1.84V60.29h-2.34q-5.5,0-5.5,3.12a2.61,2.61,0,0,0,.94,2.14A3.68,3.68,0,0,0,445.17,66.32Z"/><path class="cls-3" d="M480.67,68.53H465.24V66.44l8.15-8.79a18.85,18.85,0,0,0,2.5-3.24,5.29,5.29,0,0,0,.69-2.58,4,4,0,0,0-1.12-2.94,4,4,0,0,0-3-1.15A4.7,4.7,0,0,0,469,49a4.63,4.63,0,0,0-1.24,3.43h-3a6.64,6.64,0,0,1,2.09-5.1,7.9,7.9,0,0,1,5.6-1.95A7.61,7.61,0,0,1,477.68,47a5.63,5.63,0,0,1,1.91,4.45q0,3.38-4.43,8l-6.31,6.64h11.82Z"/><path class="cls-3" d="M498.6,58.78q0,5.1-1.79,7.58t-5.61,2.48a6.51,6.51,0,0,1-5.58-2.43q-1.81-2.43-1.88-7.25V55.29q0-5,1.79-7.49t5.63-2.45q3.8,0,5.59,2.36T498.6,55Zm-3-4a10.39,10.39,0,0,0-1.07-5.38,3.71,3.71,0,0,0-3.38-1.69,3.65,3.65,0,0,0-3.35,1.68,10.14,10.14,0,0,0-1.08,5.17v4.65a10.54,10.54,0,0,0,1.11,5.47,3.69,3.69,0,0,0,3.36,1.77,3.65,3.65,0,0,0,3.29-1.66,10.17,10.17,0,0,0,1.12-5.24Z"/><path class="cls-3" d="M517.86,68.53H502.44V66.44l8.15-8.79a18.85,18.85,0,0,0,2.5-3.24,5.29,5.29,0,0,0,.69-2.58,4,4,0,0,0-1.12-2.94,4,4,0,0,0-3-1.15A4.7,4.7,0,0,0,506.21,49,4.63,4.63,0,0,0,505,52.41h-3a6.64,6.64,0,0,1,2.09-5.1,7.9,7.9,0,0,1,5.6-1.95A7.61,7.61,0,0,1,514.87,47a5.63,5.63,0,0,1,1.91,4.45q0,3.38-4.43,8L506,66.16h11.82Z"/><path class="cls-3" d="M536.46,68.53H521V66.44l8.15-8.79a18.85,18.85,0,0,0,2.5-3.24,5.29,5.29,0,0,0,.69-2.58,4,4,0,0,0-1.12-2.94,4,4,0,0,0-3-1.15A4.7,4.7,0,0,0,524.81,49a4.63,4.63,0,0,0-1.24,3.43h-3a6.64,6.64,0,0,1,2.09-5.1,7.9,7.9,0,0,1,5.6-1.95A7.61,7.61,0,0,1,533.47,47a5.63,5.63,0,0,1,1.91,4.45q0,3.38-4.43,8l-6.31,6.64h11.82Z"/></svg>